<svg width="26" height="26" viewBox="0 0 26 26" fill="none" xmlns="http://www.w3.org/2000/svg">
<path fill-rule="evenodd" clip-rule="evenodd" d="M2.33333 12.4411C2.33333 18.24 7.03435 22.9411 12.8333 22.9411C16.6702 22.9411 20.03 20.8818 21.8619 17.806C17.8867 19.0881 13.1777 18.4183 10.0168 15.2574C6.83081 12.0714 6.21717 7.36918 7.54833 3.41275C4.44493 5.26348 2.33333 8.65854 2.33333 12.4411ZM23.0883 14.7203C24.0514 14.1568 25.501 14.7946 25.2035 15.87C23.7036 21.2928 18.7335 25.2744 12.8333 25.2744C5.74568 25.2744 0 19.5287 0 12.4411C0 6.55787 4.12802 1.50586 9.58796 0.0376526C10.666 -0.252245 11.2787 1.19708 10.6949 2.14858C8.52044 5.69199 8.67406 10.6148 11.6666 13.6074C14.624 16.5649 19.5294 16.8029 23.0883 14.7203Z" fill="#0F0F0F"/>
</svg>
