<svg width="28" height="28" viewBox="0 0 28 28" fill="none" xmlns="http://www.w3.org/2000/svg">
<path d="M12.8334 1.16667C12.8334 0.522334 13.3557 0 14 0C14.6444 0 15.1667 0.522334 15.1667 1.16667V3.5C15.1667 4.14433 14.6444 4.66667 14 4.66667C13.3557 4.66667 12.8334 4.14433 12.8334 3.5V1.16667Z" fill="#0F0F0F"/>
<path fill-rule="evenodd" clip-rule="evenodd" d="M21 14C21 17.866 17.866 21 14 21C10.134 21 7 17.866 7 14C7 10.134 10.134 7 14 7C17.866 7 21 10.134 21 14ZM9.40528 14C9.40528 16.5376 11.4624 18.5947 14 18.5947C16.5376 18.5947 18.5947 16.5376 18.5947 14C18.5947 11.4624 16.5376 9.40528 14 9.40528C11.4624 9.40528 9.40528 11.4624 9.40528 14Z" fill="#0F0F0F"/>
<path d="M23.8995 4.1005C23.4438 3.64488 22.7052 3.64488 22.2496 4.1005L20.5996 5.75041C20.144 6.20603 20.144 6.94472 20.5996 7.40034C21.0553 7.85594 21.7939 7.85594 22.2496 7.40034L23.8995 5.75041C24.3551 5.29481 24.3551 4.55611 23.8995 4.1005Z" fill="#0F0F0F"/>
<path d="M1.16667 15.1667C0.522334 15.1667 0 14.6444 0 14C0 13.3557 0.522334 12.8334 1.16667 12.8334H3.5C4.14433 12.8334 4.66667 13.3557 4.66667 14C4.66667 14.6444 4.14433 15.1667 3.5 15.1667H1.16667Z" fill="#0F0F0F"/>
<path d="M4.10049 4.1005C3.64489 4.55611 3.64489 5.29481 4.10049 5.75041L5.75042 7.40034C6.20602 7.85594 6.94472 7.85594 7.40033 7.40034C7.85595 6.94472 7.85595 6.20603 7.40033 5.75041L5.75042 4.1005C5.2948 3.64488 4.55611 3.64488 4.10049 4.1005Z" fill="#0F0F0F"/>
<path d="M12.8334 24.5C12.8334 23.8557 13.3557 23.3334 14 23.3334C14.6444 23.3334 15.1667 23.8557 15.1667 24.5V26.8334C15.1667 27.4777 14.6444 28 14 28C13.3557 28 12.8334 27.4777 12.8334 26.8334V24.5Z" fill="#0F0F0F"/>
<path d="M7.40033 20.5997C6.94472 20.144 6.20602 20.144 5.75041 20.5997L4.1005 22.2496C3.64488 22.7052 3.64488 23.4439 4.1005 23.8995C4.55611 24.3551 5.29481 24.3551 5.75041 23.8995L7.40033 22.2496C7.85595 21.7939 7.85595 21.0553 7.40033 20.5997Z" fill="#0F0F0F"/>
<path d="M24.5 15.1667C23.8557 15.1667 23.3334 14.6444 23.3334 14C23.3334 13.3557 23.8557 12.8334 24.5 12.8334H26.8334C27.4777 12.8334 28 13.3557 28 14C28 14.6444 27.4777 15.1667 26.8334 15.1667H24.5Z" fill="#0F0F0F"/>
<path d="M20.5996 20.5997C20.144 21.0553 20.144 21.7939 20.5996 22.2496L22.2496 23.8995C22.7052 24.3551 23.4438 24.3551 23.8995 23.8995C24.3551 23.4439 24.3551 22.7052 23.8995 22.2496L22.2496 20.5997C21.7939 20.144 21.0553 20.144 20.5996 20.5997Z" fill="#0F0F0F"/>
</svg>
